<svg width="64" height="64" viewBox="0 0 64 64" fill="none" xmlns="http://www.w3.org/2000/svg">
<path d="M39.0276 32.656C39.0276 32.656 35.3752 30.6696 31.6566 26.416C28.7913 23.1406 27.8695 23.0644 23.6236 22.8847C19.0962 22.6933 15.1136 21.4726 11.9011 18.9961C9.73506 17.3262 8.58661 16.7305 9.15496 18.7461C9.79166 21.0039 14.456 24.9921 14.456 24.9921C14.456 24.9921 10.4911 22.7929 10.2919 23.9511C10.0888 25.1093 12.204 27.3319 15.0107 28.8358C17.1396 29.9764 18.2099 29.9745 18.2099 29.9745C18.2099 29.9745 15.997 29.7635 14.54 29.5624C13.2763 29.3827 13.3583 31.119 15.5829 32.1093C18.3622 33.3437 21.3564 33.2304 21.3564 33.2304C21.3564 33.2304 20.5088 33.6952 19.6572 34.1073C18.8057 34.5175 19.3877 35.8495 21.4912 35.8964C23.6885 35.9452 24.2705 35.8065 24.2705 35.8065C24.2705 35.8065 22.5127 36.3632 22.7861 37.4706C23.0517 38.537 24.3486 38.6268 25.6084 38.8651C27.1045 39.1464 28.499 40.953 28.499 40.953C28.499 40.9511 26.8681 43.3104 13.462 47.2655C13.462 47.2655 17.4756 48.4022 20.788 48.2304C20.788 48.2304 20.579 49.3886 22.0595 49.5644C23.5399 49.7402 31.915 45.8046 31.915 45.8046C31.915 45.8046 37.835 46.5058 42.2195 44.1113C46.6081 41.7187 49.0065 37.3338 51.452 36.6013C53.8934 35.8669 54.9949 35.5114 54.9949 35.5114C54.9949 35.5114 53.9168 33.6696 52.1395 33.7692C52.1395 33.7692 51.3406 31.4958 48.9051 31.4977C48.9051 31.4977 52.7332 28.4313 53.9111 24.8182C55.0908 21.2069 53.2607 16.7617 51.3994 14.4332C51.3994 14.4332 50.5439 15.0055 50.8623 16.1305C50.8623 16.1305 49.8154 15.1188 49.3994 15.9332C49.0947 16.5309 49.624 17.3512 49.624 17.3512C49.624 17.3512 48.6474 16.3356 48.1552 16.8707C47.6904 17.3746 48.3505 18.3961 48.3505 18.3961C48.3505 18.3961 47.5263 17.8687 47.1904 18.5543C46.8525 19.2359 47.5283 20.3062 47.5283 20.3062C47.5283 20.3062 46.831 19.8492 46.3427 20.6285C45.8544 21.4078 46.5048 23.0484 46.5048 23.0484C46.5048 23.0484 45.2841 23.0093 45.0849 25.0582C44.8857 27.1109 42.7021 30.4177 39.0284 32.6557L39.0276 32.656Z" fill="url(#paint0_linear)"/>
<defs>
<linearGradient id="paint0_linear" x1="32.0001" y1="18" x2="43.5001" y2="49.5" gradientUnits="userSpaceOnUse">
<stop stop-color="white"/>
<stop offset="1" stop-color="white" stop-opacity="0.2"/>
</linearGradient>
</defs>
</svg>
