<svg width="64" height="64" viewBox="0 0 64 64" fill="none" xmlns="http://www.w3.org/2000/svg">
<path fill-rule="evenodd" clip-rule="evenodd" d="M20.035 16.68C24.0325 15.88 29.29 15.775 32.885 19.365C33.001 19.4813 33.0929 19.6193 33.1556 19.7712C33.2182 19.923 33.2503 20.0857 33.25 20.25V47.75C33.2504 47.9976 33.1774 48.2397 33.0401 48.4456C32.9027 48.6516 32.7073 48.8122 32.4787 48.907C32.25 49.0018 31.9983 49.0265 31.7555 48.9781C31.5128 48.9297 31.2898 48.8103 31.115 48.635C29.0075 46.525 25.8275 45.9875 22.44 46.335C19.08 46.685 15.79 47.8775 13.81 48.8675C13.6194 48.963 13.4076 49.0082 13.1946 48.9987C12.9817 48.9893 12.7747 48.9256 12.5933 48.8136C12.4119 48.7016 12.2622 48.5451 12.1584 48.3589C12.0545 48.1728 12 47.9632 12 47.75V20.25C12 20.0181 12.0646 19.7907 12.1864 19.5933C12.3083 19.396 12.4826 19.2364 12.69 19.1325L13.25 20.25L12.69 19.1325L12.695 19.13L12.705 19.125L12.7375 19.11C12.9187 19.0197 13.1021 18.9339 13.2875 18.8525C15.4512 17.8835 17.7148 17.155 20.0375 16.68H20.035ZM14.5 21.05V45.82C16.615 44.9625 19.36 44.14 22.185 43.85C25.0425 43.555 28.1525 43.7925 30.75 45.25V20.795C28.0925 18.4725 24.1725 18.405 20.525 19.135C18.4546 19.5586 16.435 20.2005 14.5 21.05Z" fill="url(#paint0_linear)"/>
<path fill-rule="evenodd" clip-rule="evenodd" d="M43.965 16.68C39.97 15.88 34.71 15.775 31.115 19.365C30.999 19.4813 30.9071 19.6193 30.8444 19.7712C30.7818 19.923 30.7497 20.0857 30.75 20.25V47.75C30.7496 47.9976 30.8226 48.2397 30.96 48.4456C31.0973 48.6516 31.2927 48.8122 31.5213 48.907C31.75 49.0018 32.0017 49.0265 32.2445 48.9781C32.4872 48.9297 32.7102 48.8103 32.885 48.635C34.9925 46.525 38.1725 45.9875 41.56 46.335C44.92 46.685 48.21 47.8775 50.19 48.8675C50.3806 48.963 50.5924 49.0082 50.8054 48.9987C51.0183 48.9893 51.2253 48.9256 51.4067 48.8136C51.5881 48.7016 51.7378 48.5451 51.8416 48.3589C51.9455 48.1728 52 47.9632 52 47.75V20.25C52 20.0181 51.9355 19.7907 51.8136 19.5933C51.6917 19.396 51.5174 19.2364 51.31 19.1325L50.75 20.25L51.31 19.1325L51.305 19.13L51.295 19.125L51.2625 19.11L51.145 19.0525C50.4891 18.7463 49.8229 18.4628 49.1475 18.2025C47.4654 17.5516 45.7319 17.0424 43.965 16.68Z" fill="url(#paint1_linear)"/>
<defs>
<linearGradient id="paint0_linear" x1="11.9954" y1="32.6143" x2="37.5042" y2="30.5743" gradientUnits="userSpaceOnUse">
<stop stop-color="white"/>
<stop offset="1" stop-color="white" stop-opacity="0.2"/>
</linearGradient>
<linearGradient id="paint1_linear" x1="30.6092" y1="49.8408" x2="55.5957" y2="47.8372" gradientUnits="userSpaceOnUse">
<stop stop-color="white"/>
<stop offset="1" stop-color="white" stop-opacity="0.2"/>
</linearGradient>
</defs>
</svg>
