<svg width="64" height="64" viewBox="0 0 64 64" fill="none" xmlns="http://www.w3.org/2000/svg">
<path d="M42.7753 13.2891C42.3899 12.9036 41.7562 12.9036 41.3708 13.2891L37.2458 17.4105L45.612 25.8567C46.2908 26.5407 46.7925 27.3497 47.1102 28.2195L51.7111 23.6293C52.0965 23.2387 52.0965 22.6102 51.7111 22.2248L42.7753 13.2891Z" fill="url(#paint0_linear)"/>
<path d="M26.5564 50.3948C27.3568 51.1951 28.6311 51.2264 29.3932 50.459L32.8029 47.0493L29.8967 44.1466L26.487 47.5511C26.1328 47.9087 25.9384 48.3879 25.9384 48.9139C25.9384 49.4556 26.1658 49.9938 26.5564 50.3948L26.5564 50.3948Z" fill="url(#paint1_linear)"/>
<path d="M26.562 40.3584L18.8363 48.0823C18.4509 48.4677 18.2356 48.9851 18.2356 49.5389C18.2356 50.0875 18.4491 50.6031 18.8363 50.9902C19.213 51.367 19.739 51.5857 20.2825 51.5857C20.8363 51.5857 21.3519 51.3756 21.739 50.9902L25.8327 46.8965L29.2372 43.4869L27.0844 41.3341C26.8119 41.0563 26.6365 40.716 26.5619 40.3584H26.562Z" fill="url(#paint2_linear)"/>
<path d="M36.5201 18.0009C34.4177 15.9037 28.9384 17.8568 24.8882 20.1641H24.883L18.0187 24.4748C17.9996 24.4835 17.9857 24.4939 17.9683 24.5025C17.7964 24.5859 17.5725 24.7161 17.5169 24.8845C17.4527 25.0946 17.6333 25.4331 17.7965 25.7352C17.8381 25.8185 17.885 25.8984 17.9215 25.9765L18.1211 26.381C18.3451 26.8515 18.7999 27.1952 19.4093 27.3532C20.0047 27.5112 20.661 27.4557 21.1714 27.2143L26.6229 24.6293C26.8503 24.5217 27.1298 24.6206 27.2409 24.8481C27.2687 24.9088 27.2826 24.9696 27.2826 25.0286C28.6645 26.5685 30.7287 27.2057 33.2825 26.8515C34.4179 26.6935 35.463 26.3168 36.3051 25.7578C36.5238 25.6189 36.812 25.6745 36.9509 25.888C37.095 26.1015 37.0342 26.3897 36.8207 26.5338C35.8624 27.1658 34.6818 27.5946 33.411 27.7717C33.1783 27.8047 32.9544 27.8272 32.7409 27.8463C32.4579 27.8689 32.1818 27.8793 31.9214 27.8793C29.3537 27.8793 27.7218 26.8567 26.7219 25.8047L12.6007 40.065C12.2136 40.4504 12 40.9677 12 41.5198C12 42.0684 12.2135 42.584 12.6007 42.9712C13.4011 43.7715 14.7031 43.7715 15.5034 42.9712L16.0659 42.4121L26.1907 32.2767C26.3713 32.0961 26.6647 32.0961 26.847 32.2767C26.8938 32.3236 26.9268 32.3739 26.9494 32.4295C27.0188 32.5979 26.9876 32.801 26.8522 32.9364L13.3434 46.4451C12.958 46.8306 12.7427 47.3479 12.7427 47.9C12.7427 48.4486 12.9563 48.9642 13.3434 49.3461C13.734 49.7368 14.2497 49.9503 14.7948 49.9503C15.3382 49.9503 15.8555 49.7368 16.2496 49.3461L26.9615 38.6449C26.9615 38.6397 26.9615 38.6397 26.9667 38.6397C26.9754 38.6258 26.9858 38.6119 26.9997 38.6015L27.0084 38.5876C27.0136 38.5824 27.0223 38.5737 27.0275 38.5685C27.0553 38.5303 27.0917 38.4939 27.1247 38.4574C27.175 38.4105 27.2219 38.3637 27.2688 38.3272L27.9337 37.6675L26.748 36.4817C26.3625 36.0963 26.1472 35.579 26.1472 35.0304C26.1472 34.4765 26.3608 33.9609 26.748 33.5703C27.0466 33.2769 27.4077 33.0963 27.7896 33.0165L27.7844 33.0113C27.3938 32.6258 27.1803 32.1085 27.1803 31.5547C27.1803 31.0009 27.3938 30.4853 27.7844 30.0981C28.5848 29.2978 29.892 29.2978 30.6907 30.0929L31.2619 30.6641C31.3417 30.2735 31.531 29.9107 31.8209 29.626C32.1091 29.3326 32.4667 29.1381 32.8626 29.0583C32.9928 29.0357 33.1316 29.0201 33.2671 29.0201H33.2723C33.8261 29.0201 34.3417 29.2336 34.7323 29.6242L42.1367 36.9628L41.6385 35.9073C41.1784 34.9403 41.4579 33.475 42.5169 32.9681L42.885 32.7875C43.1836 32.6243 43.5864 32.4056 44.0343 32.5497C44.3172 32.6434 44.5464 32.8604 44.7183 33.2059L45.3051 34.14C45.6072 33.6834 45.8676 33.2146 46.095 32.7268C47.0446 30.6469 46.5881 28.1504 44.9509 26.4993L36.5201 18.0009Z" fill="url(#paint3_linear)"/>
<path d="M46.6349 38.0318L44.8902 35.2454C44.8815 35.2315 44.8711 35.2176 44.8676 35.1985L43.9145 33.6864C43.9058 33.6725 43.8954 33.6534 43.8919 33.6395C43.8225 33.4902 43.7617 33.4433 43.7478 33.4398C43.6784 33.4207 43.4371 33.551 43.3346 33.6082L42.9249 33.8131C42.3572 34.0874 42.2235 34.9659 42.4839 35.5145L43.3676 37.3842C43.3728 37.3894 43.3728 37.3929 43.3763 37.4033L44.1106 38.9571C44.227 39.1898 44.1297 39.4693 43.9006 39.5804C43.8363 39.6133 43.7652 39.6307 43.6957 39.6307C43.5568 39.6307 43.4266 39.5647 43.3381 39.4588C43.3294 39.4502 43.319 39.4502 43.3155 39.4449L34.0725 30.2886C33.859 30.0751 33.5742 29.9587 33.2722 29.9587C32.9614 29.9674 32.6906 30.0751 32.477 30.2886C32.2669 30.4987 32.1524 30.7817 32.1524 31.0837C32.1524 31.391 32.2687 31.674 32.477 31.8841L39.2392 38.6516C39.4197 38.8321 39.4197 39.1255 39.2392 39.3078C39.0586 39.4901 38.76 39.4884 38.5794 39.3078L30.036 30.7577C29.5985 30.3202 28.8832 30.3202 28.4405 30.7577C28.2304 30.9712 28.1107 31.256 28.1107 31.5581C28.1107 31.8601 28.227 32.1448 28.4405 32.3532L29.6541 33.5667L29.6593 33.572L37.1885 41.1012L37.1937 41.1099L37.3517 41.2679C37.5288 41.4536 37.5288 41.747 37.343 41.9241C37.1573 42.1047 36.8639 42.1012 36.6868 41.9155L36.5236 41.7523L29.0028 34.2279C28.5618 33.7956 27.8448 33.7956 27.4021 34.2331C27.192 34.4432 27.0757 34.7262 27.0757 35.0334C27.0757 35.3321 27.192 35.615 27.4055 35.8286L29.9489 38.3772C29.9576 38.3859 29.9715 38.3963 29.9819 38.405L35.4228 43.8511C35.6033 44.0317 35.6033 44.3303 35.4228 44.5109C35.3342 44.5994 35.2127 44.6463 35.0964 44.6463C34.9748 44.6463 34.8551 44.5994 34.7665 44.5109L29.3621 39.0927C29.3482 39.084 29.3343 39.0736 29.3239 39.0597C28.9611 38.7108 28.3291 38.7021 27.9247 38.9989C27.9194 38.9989 27.916 39.0042 27.916 39.0042C27.9073 39.0128 27.8934 39.0233 27.883 39.0319L27.6972 39.2229H27.692C27.3379 39.6639 27.3622 40.2923 27.7424 40.6777L30.2267 43.1569V43.1621L33.7753 46.7107C33.7805 46.7159 33.784 46.7159 33.7892 46.7193C33.7944 46.7245 33.7944 46.728 33.7978 46.7332L36.5704 49.5058C37.5044 50.4641 38.5044 51.1151 39.5374 51.4554C40.5512 51.7766 41.6485 51.511 42.4019 50.7627L48.0339 45.1779C49.2127 43.9991 48.1832 40.7387 46.6346 38.0322L46.6349 38.0318Z" fill="url(#paint4_linear)"/>
<defs>
<linearGradient id="paint0_linear" x1="44.623" y1="13" x2="44.623" y2="28.2195" gradientUnits="userSpaceOnUse">
<stop stop-color="white"/>
<stop offset="1" stop-color="white" stop-opacity="0.3"/>
</linearGradient>
<linearGradient id="paint1_linear" x1="29.3706" y1="44.1466" x2="29.3706" y2="51.0153" gradientUnits="userSpaceOnUse">
<stop stop-color="white"/>
<stop offset="1" stop-color="white" stop-opacity="0.3"/>
</linearGradient>
<linearGradient id="paint2_linear" x1="23.7364" y1="40.3584" x2="23.7364" y2="51.5857" gradientUnits="userSpaceOnUse">
<stop stop-color="white"/>
<stop offset="1" stop-color="white" stop-opacity="0.3"/>
</linearGradient>
<linearGradient id="paint3_linear" x1="29.2925" y1="17.1072" x2="29.2925" y2="49.9503" gradientUnits="userSpaceOnUse">
<stop stop-color="white"/>
<stop offset="1" stop-color="white" stop-opacity="0.3"/>
</linearGradient>
<linearGradient id="paint4_linear" x1="37.8099" y1="29.9587" x2="37.8099" y2="51.5895" gradientUnits="userSpaceOnUse">
<stop stop-color="white"/>
<stop offset="1" stop-color="white" stop-opacity="0.3"/>
</linearGradient>
</defs>
</svg>
