<svg width="64" height="64" viewBox="0 0 64 64" fill="none" xmlns="http://www.w3.org/2000/svg">
<path d="M33.2798 38.6002C32.3328 38.1277 30.8599 37.2321 29.3357 36.1803C28.1258 36.4432 26.6529 36.1803 25.1821 35.0751C24.8144 34.8122 24.4467 34.4958 24.0769 34.1281C23.1833 33.2345 22.2363 32.0246 21.1846 30.7099C21.0798 30.6051 21.0264 30.5004 20.9216 30.3935C20.6587 30.0772 20.7121 29.5513 21.0264 29.2884C21.3941 28.972 21.92 29.0254 22.2363 29.3931C22.3411 29.4979 22.3945 29.6026 22.4993 29.7095C23.8674 31.3919 25.1287 33.0229 26.1804 33.7583C28.1258 35.1778 29.6521 34.6519 30.4409 33.7049C31.0715 32.9161 31.2832 31.7596 30.3875 30.9708C29.1262 29.8142 27.9163 28.3414 26.7063 26.8685C25.3382 25.1861 23.8674 23.4503 22.6041 22.4519C21.8687 21.926 20.3958 21.242 18.8181 20.5579C18.4504 20.3997 17.713 20.0854 17.713 20.0854L14.6645 17.1972C14.4015 16.9343 14.0339 16.9343 13.8222 17.1972L7.1972 23.7707C6.93427 24.0336 6.93427 24.4013 7.1972 24.613L10.143 27.5587C11.6159 30.6606 13.5078 34.3415 15.0341 36.1311C18.1359 39.7588 28.444 42.4953 31.5456 43.1768C34.7009 43.8054 36.0156 39.9661 33.2794 38.6L33.2798 38.6002Z" fill="url(#paint0_linear)"/>
<path d="M56.8396 39.5983L53.8938 36.6526C52.4209 33.5507 50.529 29.8698 49.0027 28.0802C45.9008 24.5059 35.5412 21.7181 32.4396 21.0876C29.3377 20.4569 27.9696 24.2963 30.7572 25.6623C31.7042 26.1348 33.1771 27.0304 34.7013 28.0822C35.9112 27.8193 37.3841 28.0822 38.8549 29.1874C39.2226 29.4503 39.5903 29.7667 39.9601 30.1344C40.8536 31.028 41.8007 32.2379 42.8524 33.5526C42.9572 33.6574 43.0106 33.7621 43.1154 33.869C43.3783 34.1853 43.3249 34.7112 43.0106 34.9742C42.6429 35.2905 42.117 35.2371 41.8006 34.8694C41.6959 34.7646 41.6425 34.6599 41.5377 34.553C40.1696 32.8706 38.9083 31.2396 37.8565 30.5042C35.9112 29.0847 34.3849 29.6106 33.5961 30.5576C32.9654 31.3464 32.7538 32.5029 33.6495 33.2917C34.9108 34.4483 36.1207 35.9211 37.3306 37.394C38.6988 39.0764 40.1695 40.8122 41.4329 41.8106C42.1683 42.3365 43.6412 43.0205 45.2188 43.7046C45.5865 43.8628 46.324 44.1771 46.324 44.1771L49.2698 47.1228C49.5327 47.3858 49.9004 47.3858 50.112 47.1228L56.6855 40.5493C57.0512 40.2289 57.0512 39.8612 56.8396 39.5982L56.8396 39.5983Z" fill="url(#paint1_linear)"/>
<defs>
<linearGradient id="paint0_linear" x1="30.4089" y1="19.7893" x2="12.7007" y2="39.1073" gradientUnits="userSpaceOnUse">
<stop stop-color="white"/>
<stop offset="1" stop-color="white" stop-opacity="0.2"/>
</linearGradient>
<linearGradient id="paint1_linear" x1="34.165" y1="40.1805" x2="57.2394" y2="20.8625" gradientUnits="userSpaceOnUse">
<stop stop-color="white"/>
<stop offset="1" stop-color="white" stop-opacity="0.2"/>
</linearGradient>
</defs>
</svg>
