<svg width="64" height="64" viewBox="0 0 64 64" fill="none" xmlns="http://www.w3.org/2000/svg">
<path fill-rule="evenodd" clip-rule="evenodd" d="M32 19.6441L47.75 35.3941V46.4375C47.75 47.4818 47.3352 48.4833 46.5967 49.2217C45.8583 49.9602 44.8568 50.375 43.8125 50.375H20.1875C19.1432 50.375 18.1417 49.9602 17.4033 49.2217C16.6648 48.4833 16.25 47.4818 16.25 46.4375V35.3941L32 19.6441ZM45.125 17.5625V26.75L39.875 21.5V17.5625C39.875 17.2144 40.0133 16.8806 40.2594 16.6344C40.5056 16.3883 40.8394 16.25 41.1875 16.25H43.8125C44.1606 16.25 44.4944 16.3883 44.7406 16.6344C44.9867 16.8806 45.125 17.2144 45.125 17.5625Z" fill="url(#paint0_linear)"/>
<path fill-rule="evenodd" clip-rule="evenodd" d="M30.1441 14.9375C30.6363 14.4454 31.3039 14.1689 32 14.1689C32.696 14.1689 33.3636 14.4454 33.8558 14.9375L51.3042 32.3833C51.5507 32.6297 51.6891 32.964 51.6891 33.3125C51.6891 33.661 51.5507 33.9953 51.3042 34.2418C51.0577 34.4882 50.7235 34.6267 50.3749 34.6267C50.0264 34.6267 49.6922 34.4882 49.4457 34.2418L32 16.7934L14.5542 34.2418C14.3077 34.4882 13.9735 34.6267 13.6249 34.6267C13.2764 34.6267 12.9422 34.4882 12.6957 34.2418C12.4492 33.9953 12.3108 33.661 12.3108 33.3125C12.3108 32.964 12.4492 32.6297 12.6957 32.3833L30.1441 14.9375Z" fill="url(#paint1_linear)"/>
<defs>
<linearGradient id="paint0_linear" x1="16.2432" y1="33.3143" x2="53.8109" y2="29.0365" gradientUnits="userSpaceOnUse">
<stop stop-color="white"/>
<stop offset="1" stop-color="white" stop-opacity="0.2"/>
</linearGradient>
<linearGradient id="paint1_linear" x1="12.05" y1="35.15" x2="56.15" y2="24.65" gradientUnits="userSpaceOnUse">
<stop stop-color="white"/>
<stop offset="1" stop-color="white" stop-opacity="0.2"/>
</linearGradient>
</defs>
</svg>
