<svg width="64" height="64" viewBox="0 0 64 64" fill="none" xmlns="http://www.w3.org/2000/svg">
<path d="M22.2747 20.0984C22.3519 20.137 22.429 20.1756 22.5062 20.2528C22.7377 20.4071 22.9691 20.5614 23.162 20.7157C23.2392 20.7543 23.2777 20.7929 23.3549 20.8314C23.6249 21.0243 23.8564 21.2172 24.0879 21.4101C24.1265 21.4101 24.1265 21.4487 24.165 21.4487C24.4351 21.6802 24.7052 21.8731 24.9752 22.1045C25.4767 20.3299 26.1325 18.5939 26.9812 16.9734C25.901 15.9318 24.7051 15.0446 23.3935 14.2344C22.5447 15.9318 21.8889 17.745 21.4646 19.558C21.5032 19.5966 21.5418 19.5966 21.5803 19.6352L22.2747 20.0981V20.0984Z" fill="url(#paint0_linear)"/>
<path d="M34.8124 41.3937C34.8124 41.3551 34.851 41.3165 34.8896 41.3165L34.9667 41.2008C35.0439 41.1236 35.0825 41.0079 35.121 40.9307C35.1982 40.7764 35.2754 40.6607 35.3525 40.5064C35.3911 40.4292 35.4297 40.3906 35.4683 40.3135L35.5454 40.1978C35.6226 40.082 35.6611 39.9663 35.7383 39.8506C35.7769 39.7734 35.8155 39.6962 35.854 39.6577C35.9312 39.5419 35.9698 39.4262 36.0469 39.3105L36.0855 39.1947C36.1627 39.0404 36.2398 38.9247 36.2784 38.7704L36.317 38.6932C36.3941 38.5389 36.4713 38.3846 36.5099 38.2688C36.5099 38.2303 36.5099 38.2303 36.5484 38.1917C36.6256 38.0374 36.6642 37.8831 36.7413 37.7288L36.7799 37.613C36.8571 37.4587 36.8956 37.3044 36.9342 37.1887L36.9728 37.0729C37.0114 36.9572 37.0499 36.8029 37.1271 36.6871L37.1657 36.5714C37.2043 36.4171 37.2814 36.2628 37.32 36.147L37.3586 35.9927C37.3971 35.877 37.4357 35.7227 37.4743 35.6069V35.5684V35.5298L37.59 35.0668L37.6286 34.9125L37.7444 34.4496L37.7829 34.3339C37.8215 34.2181 37.8215 34.1024 37.8601 33.9867L37.8987 33.8709V33.7938C37.9372 33.678 37.9372 33.5237 37.9758 33.408L38.0144 33.2537C38.053 33.1379 38.053 33.0222 38.0916 32.9065C38.1301 32.7522 38.1301 32.5978 38.1687 32.4821C38.1687 32.4435 38.1687 32.3664 38.2073 32.3278L38.2459 32.1349C38.2459 32.0578 38.2845 31.9806 38.2845 31.9034C38.323 31.672 38.323 31.4405 38.3616 31.2091V31.0547V30.9004C38.4002 30.6304 38.4002 30.3218 38.4388 30.0517V29.936V29.8974C38.4388 29.5888 38.4773 29.2416 38.4773 28.9329V28.6629C38.4773 28.3928 38.4773 28.0842 38.4388 27.8141V27.7756V27.6213C38.4388 27.3512 38.4002 27.0811 38.4002 26.7725V26.6568V26.4639C38.3616 26.2324 38.3616 26.0009 38.323 25.7695C38.323 25.6923 38.323 25.6152 38.2845 25.5766L38.2459 25.3837C38.2459 25.3451 38.2459 25.3066 38.2073 25.268C38.2073 25.1523 38.1687 25.0365 38.1301 24.9208L38.0144 24.3035C37.5129 21.8345 36.6642 19.4813 35.4297 17.2822V17.2436C34.5809 15.7391 33.5393 14.3117 32.3434 13C31.1475 14.3116 30.1059 15.7391 29.2572 17.2436V17.2822C28.0227 19.4811 27.1353 21.8344 26.6724 24.3035L26.5181 24.8822C26.4795 25.0365 26.4795 25.1523 26.4409 25.3066V25.4223L26.4024 25.6152C26.4024 25.6924 26.4024 25.7309 26.3638 25.8081C26.3252 26.0396 26.2866 26.271 26.2866 26.5025V26.6954V26.8111C26.2481 27.0812 26.2481 27.3126 26.2481 27.5827V27.8141C26.2481 28.1613 26.2095 28.47 26.2095 28.8171V28.9329C26.2095 29.2801 26.2095 29.6273 26.2481 29.9359V30.0516C26.2481 30.3602 26.2866 30.6303 26.3252 30.9389V31.0547V31.209C26.3638 31.4404 26.3638 31.6719 26.4024 31.9034C26.4024 31.9805 26.4409 32.0577 26.4409 32.1348L26.4795 32.3277V32.4435C26.5181 32.5978 26.5181 32.7521 26.5567 32.945C26.5567 33.0607 26.5953 33.1764 26.6338 33.2922L26.6724 33.4465C26.711 33.5622 26.711 33.6394 26.7496 33.7551C26.7496 33.8323 26.7881 33.8708 26.7881 33.948L26.8267 34.0637C26.8653 34.1795 26.8653 34.2952 26.9039 34.4109L26.9425 34.5267C26.981 34.681 27.0196 34.8353 27.0582 34.951L27.0968 35.1053L27.2125 35.5683V35.6068V35.6454C27.2511 35.7612 27.2897 35.9155 27.3282 36.0312L27.3668 36.1855C27.4054 36.3398 27.4826 36.4941 27.5211 36.6099L27.5597 36.7256C27.5983 36.8414 27.6369 36.9957 27.714 37.1114L27.7526 37.2271C27.7912 37.3815 27.8683 37.5358 27.9069 37.6515L27.9455 37.7672C28.0227 37.9215 28.0612 38.0759 28.1384 38.2302C28.1384 38.2688 28.1384 38.2688 28.177 38.3073C28.2541 38.4231 28.2927 38.5774 28.3698 38.6931L28.4084 38.8088C28.4856 38.9632 28.5627 39.0789 28.6013 39.2332L28.6399 39.3489C28.7171 39.4647 28.7556 39.5804 28.8328 39.6961C28.9099 39.8119 28.9485 39.9276 29.0257 40.0433L29.1414 40.2748L29.2186 40.3906C29.2571 40.4677 29.3343 40.5834 29.3729 40.6606C29.45 40.7763 29.5272 40.8921 29.5658 41.0078C29.6043 41.085 29.6815 41.2007 29.7201 41.2779L29.7972 41.3936C29.8358 41.4322 29.8358 41.4707 29.8744 41.4707C29.9901 41.6636 30.1059 41.8565 30.2602 42.0494C30.2987 42.1266 30.3759 42.2037 30.4145 42.2809V42.3195C30.5688 42.5509 30.7231 42.7824 30.916 43.0139C30.9546 43.0524 30.9931 43.1296 31.0317 43.1682L31.6104 43.8626C31.649 43.9011 31.6876 43.9783 31.7261 44.0169C31.919 44.2483 32.1119 44.4798 32.3434 44.7112L32.382 44.7498L32.4206 44.7112C32.6134 44.4798 32.8449 44.2483 33.0378 44.0169C33.0764 43.9783 33.115 43.9011 33.1535 43.8626C33.3464 43.6311 33.5007 43.3996 33.6937 43.1682C33.7708 43.091 33.8094 43.0139 33.848 42.9367C34.0023 42.7052 34.1566 42.5123 34.3109 42.2809V42.2423C34.3881 42.1652 34.4266 42.0494 34.5038 41.9723C34.5809 41.7408 34.6967 41.5866 34.8124 41.3937Z" fill="url(#paint1_linear)"/>
<path d="M39.6345 22.1047C39.9045 21.8732 40.1746 21.6417 40.4446 21.4489L40.5218 21.3717C40.7532 21.1788 41.0233 20.9859 41.2548 20.793C41.3319 20.7545 41.3705 20.7159 41.4476 20.6773C41.6791 20.523 41.872 20.3687 42.1035 20.2144C42.1806 20.1758 42.2578 20.1372 42.3349 20.06C42.5664 19.9057 42.7593 19.79 42.9907 19.6357C43.0293 19.5971 43.0679 19.5971 43.1065 19.5585C42.6821 17.7068 42.0263 15.9322 41.1776 14.2349C39.9045 15.045 38.7086 15.9709 37.5898 16.9739C38.4772 18.6328 39.133 20.3302 39.6345 22.105V22.1047Z" fill="url(#paint2_linear)"/>
<path d="M42.1037 22.799C41.7179 23.1076 41.3321 23.4162 40.9849 23.7248C40.9464 23.7634 40.9078 23.802 40.8692 23.802C40.6377 24.0335 40.3677 24.2649 40.1362 24.4964L40.1748 24.6507V24.7664C40.2134 24.9593 40.2134 25.1136 40.2519 25.3066C40.2519 25.4223 40.2905 25.538 40.2905 25.6538L40.3291 25.9238C40.3291 26.001 40.3291 26.0781 40.3677 26.1167C40.3677 26.2324 40.4063 26.3482 40.4063 26.4639V26.5025C40.4063 26.6568 40.4448 26.8111 40.4448 26.9268V27.1197V27.4283V27.6212V27.6598V28.1227V28.3156V28.6628V28.74V28.8171V28.8557V28.8943V29.3187V29.5116V29.9745V30.0131V30.1674C40.4448 30.2831 40.4448 30.3989 40.4063 30.5146V30.7075C40.4063 30.8618 40.3677 31.0161 40.3677 31.1704V31.209C40.3677 31.3247 40.3291 31.4405 40.3291 31.5176C40.3291 31.5948 40.3291 31.6719 40.2905 31.7105V31.8648C40.2905 32.0191 40.2519 32.1734 40.2134 32.3278C40.1748 32.5206 40.1748 32.675 40.1362 32.8679C40.1362 32.9064 40.1362 32.945 40.0976 33.0222V33.1379C40.0591 33.2537 40.0591 33.3694 40.0205 33.4851C39.9819 33.7166 39.9433 33.9866 39.8662 34.2181L39.8276 34.3339C39.8276 34.411 39.789 34.4882 39.789 34.5267C39.3261 36.4942 38.6703 38.346 37.7829 40.159V40.1976V40.2362C37.6286 40.5448 37.4743 40.8534 37.2814 41.1621V41.2006L37.2043 41.3164C37.1657 41.3935 37.0885 41.5093 37.05 41.5864C36.9342 41.7793 36.8185 42.0108 36.7028 42.2037C36.7028 42.2422 36.6642 42.2808 36.6642 42.2808L36.587 42.3966C36.5099 42.5509 36.3942 42.6666 36.317 42.8209C36.2398 42.9367 36.1627 43.0138 36.1241 43.1295C36.0855 43.2067 36.0084 43.2839 35.9698 43.361L35.9312 43.4382C35.8155 43.5925 35.6997 43.7468 35.6226 43.9011L35.584 43.9397C35.5454 44.0168 35.4683 44.094 35.4297 44.1326C35.3911 44.1712 35.3525 44.2097 35.3525 44.2483C35.584 44.1712 35.7769 44.094 36.0084 44.0168C36.0469 44.0168 36.0855 43.9783 36.1241 43.9783C36.5099 43.824 36.9342 43.6696 37.32 43.4768C37.3586 43.4768 37.3586 43.4382 37.3972 43.4382C39.0174 42.7052 40.522 41.7793 41.9494 40.6606C41.988 40.6606 41.988 40.622 42.0266 40.622C43.9555 39.1174 45.6529 37.3042 47.0416 35.1823C50.3207 30.2828 51.6324 24.4574 50.7451 18.6321C48.6233 19.1336 46.6172 19.9437 44.7267 21.0239C44.3023 21.2554 43.8779 21.5255 43.4536 21.7955C43.415 21.7955 43.415 21.8341 43.3765 21.8341C42.9521 22.1041 42.5663 22.3742 42.1805 22.6828C42.1805 22.76 42.1419 22.76 42.1034 22.7986L42.1037 22.799Z" fill="url(#paint3_linear)"/>
<path d="M29.3723 46.4864C29.1795 46.4092 28.948 46.3706 28.7551 46.2935C28.5622 46.2163 28.3693 46.1777 28.1764 46.1006C27.9835 46.0234 27.8292 45.9463 27.6363 45.9077C27.4048 45.8305 27.2119 45.7148 26.9805 45.6376C26.8647 45.5991 26.7104 45.5219 26.5947 45.4833C26.3246 45.3676 26.0546 45.2519 25.7846 45.0976C25.7074 45.059 25.6688 45.0204 25.5917 45.0204C24.1643 44.326 22.814 43.4773 21.5795 42.5128C20.9623 42.4357 20.3065 42.3971 19.6892 42.3971C15.2527 42.3971 11.0477 44.0945 8 47.1422C11.202 49.6498 15.0599 51 19.072 51C23.2384 51 27.2503 49.4569 30.2595 46.7564C30.1438 46.7178 30.028 46.6793 29.9123 46.6407C29.758 46.6021 29.5651 46.5635 29.3722 46.4864H29.3723Z" fill="url(#paint4_linear)"/>
<path d="M22.5821 40.6224C22.6207 40.6224 22.6207 40.661 22.6593 40.661C24.0866 41.7797 25.6298 42.7056 27.2886 43.4772C27.3272 43.4772 27.3272 43.4772 27.3658 43.5157C27.7516 43.7086 28.1374 43.8629 28.5232 44.0172C28.6003 44.0558 28.6775 44.0558 28.7161 44.0944C28.9089 44.1715 29.0633 44.2101 29.2562 44.2873C29.2176 44.2487 29.179 44.2101 29.179 44.1715C29.1404 44.0944 29.0633 44.0558 29.0247 43.9787L28.9861 43.9401C28.8704 43.7858 28.7547 43.6314 28.6775 43.4771L28.6389 43.4386C28.5618 43.3614 28.5232 43.2842 28.4846 43.2071C28.4075 43.0914 28.3303 43.0142 28.2917 42.8985C28.2146 42.7442 28.0988 42.6284 28.0217 42.4741L27.9445 42.3584C27.9445 42.3198 27.9059 42.2812 27.9059 42.2812C27.7902 42.0883 27.6745 41.8954 27.5587 41.7025C27.5202 41.6254 27.443 41.5096 27.4044 41.4325L27.2887 41.2396V41.201C27.1344 40.8924 26.9801 40.6223 26.8258 40.3137C26.8258 40.2751 26.7872 40.2751 26.7872 40.2365L26.71 40.1208C25.8227 38.3462 25.1669 36.4559 24.7425 34.527C24.7425 34.4885 24.7425 34.4499 24.7039 34.4113L24.6654 34.257V34.2184C24.6268 33.9869 24.5496 33.7169 24.5111 33.4854C24.5111 33.4083 24.4725 33.2925 24.4725 33.2154L24.4339 33.0611C24.4339 33.0225 24.4339 32.9453 24.3953 32.9067C24.3567 32.7524 24.3567 32.5595 24.3182 32.4052C24.2796 32.2509 24.2796 32.0966 24.241 31.9423V31.788C24.241 31.7108 24.241 31.6337 24.2024 31.5565C24.2024 31.4408 24.1638 31.3636 24.1638 31.2479V31.2093C24.1638 31.055 24.1253 30.9007 24.1253 30.7464V30.5535C24.1253 30.4378 24.1253 30.322 24.0867 30.2063V30.0906V30.052V29.589V29.3576V28.9332V28.8946V28.8561V28.8175V28.7403V28.3931V28.2002V27.7373V27.6987V27.4287L24.1253 27.0043C24.1253 26.85 24.1638 26.6957 24.1638 26.5799V26.5028C24.1638 26.387 24.2024 26.2713 24.2024 26.1942C24.2024 26.117 24.2024 26.0398 24.241 25.9627L24.2796 25.6926C24.2796 25.5769 24.3182 25.4612 24.3182 25.3454V25.3069C24.3567 25.1525 24.3567 24.9597 24.3953 24.8054C24.3953 24.7668 24.3953 24.7282 24.4339 24.6896L24.4725 24.5353C24.241 24.3038 24.0095 24.0724 23.7395 23.8795L23.6237 23.7638C23.2765 23.4551 22.8907 23.1465 22.505 22.8764C22.4664 22.8379 22.4278 22.8379 22.3893 22.7993C22.0035 22.4907 21.6177 22.2206 21.1933 21.9505C21.1547 21.912 21.1162 21.912 21.1162 21.8734C20.6918 21.6033 20.2674 21.3333 19.8431 21.1018C17.9528 20.0216 15.9467 19.2501 13.8247 18.71C12.9374 24.4968 14.249 30.3607 17.5282 35.2602C18.9555 37.3048 20.653 39.118 22.5817 40.6223L22.5821 40.6224Z" fill="url(#paint5_linear)"/>
<path d="M44.9198 42.3971C44.3025 42.3971 43.6467 42.4357 43.0295 42.5128C41.7564 43.4773 40.4447 44.2875 39.0173 45.0204C38.9402 45.059 38.9016 45.0976 38.8245 45.0976C38.5544 45.2133 38.2843 45.329 38.0529 45.4448C37.9372 45.5219 37.7828 45.5605 37.6671 45.6376C37.4356 45.7148 37.2428 45.8305 37.0113 45.9077C36.8184 45.9849 36.6641 46.062 36.4712 46.1006C36.2783 46.1777 36.0854 46.2549 35.8925 46.2935C35.6996 46.3706 35.4681 46.4478 35.2752 46.4864C35.0824 46.5635 34.8895 46.6021 34.6966 46.6407C34.5808 46.6793 34.4651 46.7178 34.3879 46.7178C37.3971 49.4183 41.3708 50.9614 45.5755 50.9614C49.5876 50.9614 53.4842 49.6112 56.6475 47.1036C53.5612 44.0945 49.356 42.3971 44.9197 42.3971L44.9198 42.3971Z" fill="url(#paint6_linear)"/>
<defs>
<linearGradient id="paint0_linear" x1="24.2229" y1="14.2344" x2="24.2229" y2="22.1045" gradientUnits="userSpaceOnUse">
<stop stop-color="white"/>
<stop offset="1" stop-color="white" stop-opacity="0.2"/>
</linearGradient>
<linearGradient id="paint1_linear" x1="32.3434" y1="13" x2="32.3434" y2="44.7498" gradientUnits="userSpaceOnUse">
<stop stop-color="white"/>
<stop offset="1" stop-color="white" stop-opacity="0.2"/>
</linearGradient>
<linearGradient id="paint2_linear" x1="40.3482" y1="14.2349" x2="40.3482" y2="22.105" gradientUnits="userSpaceOnUse">
<stop stop-color="white"/>
<stop offset="1" stop-color="white" stop-opacity="0.2"/>
</linearGradient>
<linearGradient id="paint3_linear" x1="43.1841" y1="18.6321" x2="43.1841" y2="44.2483" gradientUnits="userSpaceOnUse">
<stop stop-color="white"/>
<stop offset="1" stop-color="white" stop-opacity="0.2"/>
</linearGradient>
<linearGradient id="paint4_linear" x1="19.1298" y1="42.3971" x2="19.1298" y2="51" gradientUnits="userSpaceOnUse">
<stop stop-color="white"/>
<stop offset="1" stop-color="white" stop-opacity="0.2"/>
</linearGradient>
<linearGradient id="paint5_linear" x1="21.4052" y1="18.71" x2="21.4052" y2="44.2873" gradientUnits="userSpaceOnUse">
<stop stop-color="white"/>
<stop offset="1" stop-color="white" stop-opacity="0.2"/>
</linearGradient>
<linearGradient id="paint6_linear" x1="45.5177" y1="42.3971" x2="45.5177" y2="50.9614" gradientUnits="userSpaceOnUse">
<stop stop-color="white"/>
<stop offset="1" stop-color="white" stop-opacity="0.2"/>
</linearGradient>
</defs>
</svg>
