<svg width="64" height="64" viewBox="0 0 64 64" fill="none" xmlns="http://www.w3.org/2000/svg">
<path d="M32.8326 56.5127L32.5776 45.2474C32.6426 45.1199 32.7051 44.9924 32.8326 44.8624C32.9601 44.7349 33.0876 44.6699 33.1526 44.6074C36.7377 45.0549 40.32 45.5674 43.9053 46.0149L42.8802 42.8149C42.8802 42.7499 42.8153 42.6224 42.8153 42.4949C42.8153 42.3674 42.8802 42.2399 42.9427 42.1749C46.6553 39.1024 50.3027 36.0949 54.0154 33.0222L51.5829 31.8697C51.5179 31.8047 51.1354 31.7422 51.1354 31.2947C51.1354 31.1022 51.2004 30.6547 51.2629 30.5897C51.9029 28.2847 52.4154 26.3022 53.0554 23.997L47.2304 25.212C47.1029 25.212 46.5253 25.4045 46.3354 25.212C46.1429 25.0195 45.8879 24.637 45.8879 24.637C45.5679 23.612 45.3754 22.8445 45.0554 21.757L40.0629 27.3895C39.8079 27.7095 39.3578 27.7745 38.9754 27.6445C38.5279 27.452 38.3354 26.9395 38.4629 26.492C39.1679 22.717 39.9354 18.9394 40.6379 15.0994L37.3104 16.8269C37.1829 16.8269 36.9254 17.0194 36.5429 16.8919C36.0954 16.7644 36.0304 16.4444 35.9679 16.3794C34.6879 13.9469 33.4079 11.5794 32.1279 9.14673C30.8479 11.5792 29.5679 13.9467 28.2879 16.3794C28.2229 16.5069 28.1604 16.8269 27.7129 16.8919C27.2654 17.0194 27.0729 16.8269 26.9454 16.8269L23.6179 15.0994C24.3229 18.8744 25.0904 22.652 25.7929 26.492C25.9204 26.9395 25.7279 27.452 25.2804 27.6445C24.8954 27.837 24.5129 27.7095 24.1929 27.3895L19.0079 21.7595C18.6879 22.7845 18.4954 23.552 18.1754 24.6395C18.1754 24.6395 17.9204 25.0245 17.7279 25.2145C17.5354 25.407 16.9604 25.2145 16.8329 25.2145L11.0079 23.9995C11.6479 26.3046 12.1604 28.287 12.8004 30.5922C12.8654 30.6572 12.9279 31.1047 12.9279 31.2972C12.9279 31.7447 12.5429 31.8097 12.4804 31.8722L10.0479 33.0247C13.7604 36.0972 17.4079 39.1047 21.1205 42.1774C21.1855 42.2424 21.1855 42.3699 21.248 42.4974C21.248 42.6249 21.248 42.7524 21.183 42.8174L20.1605 46.0799C23.7455 45.6324 27.3278 45.1199 30.9131 44.6724C30.9781 44.7374 31.1056 44.7999 31.2331 44.9274C31.3606 45.0549 31.4256 45.1824 31.4881 45.3124L31.2331 56.5777L32.8331 56.5752L32.8326 56.5127Z" fill="url(#paint0_linear)"/>
<defs>
<linearGradient id="paint0_linear" x1="21.76" y1="16" x2="45.44" y2="48.64" gradientUnits="userSpaceOnUse">
<stop stop-color="white"/>
<stop offset="1" stop-color="white" stop-opacity="0.2"/>
</linearGradient>
</defs>
</svg>
