<svg width="64" height="64" viewBox="0 0 64 64" fill="none" xmlns="http://www.w3.org/2000/svg">
<path d="M49.3499 49.9776C48.0699 50.4201 46.7899 50.7976 45.5099 51.1351L43.7124 30.6251L45.9199 30.4326L45.6949 27.8726L23.7096 29.7926H23.7121C22.5246 22.6348 20.9571 15.5475 19.0146 8.55737L16.5496 9.24736C19.5071 20.0275 21.6321 31.015 22.9121 42.1171L23.7946 52.2297C20.6846 51.7547 17.6246 51.0022 14.6497 49.9773L13.8171 52.4023C19.6671 54.4148 25.812 55.4373 31.9995 55.4298C38.1871 55.4373 44.3323 54.4148 50.1819 52.4023L49.3499 49.9776ZM25.46 41.8554L25.42 41.6004L41.9774 40.1529L42.4249 45.2729L25.8822 46.7204L25.46 41.8554ZM41.755 37.5804L25.0952 39.0404C25.0252 38.5104 24.9602 37.9778 24.8902 37.4528L41.5999 35.9878L41.755 37.5804ZM41.165 30.8476L41.5625 35.3276L24.8003 36.8201C24.5903 35.3101 24.3778 33.8176 24.1603 32.3401L41.165 30.8476ZM26.3925 52.5698L26.105 49.2349L42.6503 47.7874L42.9953 51.7299C39.3803 52.4899 35.6955 52.8699 32.0001 52.8699C30.1276 52.8674 28.255 52.7648 26.3925 52.5698Z" fill="url(#paint0_linear)"/>
<defs>
<linearGradient id="paint0_linear" x1="14.0802" y1="24.32" x2="46.7202" y2="39.68" gradientUnits="userSpaceOnUse">
<stop stop-color="white"/>
<stop offset="1" stop-color="white" stop-opacity="0.2"/>
</linearGradient>
</defs>
</svg>
