<?xml version="1.0" encoding="UTF-8" standalone="no"?>
<!DOCTYPE svg PUBLIC "-//W3C//DTD SVG 1.1//EN" "http://www.w3.org/Graphics/SVG/1.1/DTD/svg11.dtd">
<svg width="100%" height="100%" viewBox="0 0 845 394" version="1.1" xmlns="http://www.w3.org/2000/svg" xmlns:xlink="http://www.w3.org/1999/xlink" xml:space="preserve" style="fill-rule:evenodd;clip-rule:evenodd;stroke-linejoin:round;stroke-miterlimit:1.41421;">
    <g id="Artboard1" transform="matrix(1.07234,0,0,1.01285,-3.21701,-109.388)">
        <rect x="3" y="108" width="788" height="389" style="fill:none;"/>
        <g transform="matrix(0.932544,0,0,0.98731,26.3136,11.2437)">
            <g transform="matrix(2.66486,0,0,2.66486,-670.376,-515.724)">
                <path d="M271.649,369.604L268.018,369.604L268.018,368.019C266.836,369.229 265.279,369.921 263.464,369.921C259.601,369.921 256.401,366.577 256.401,362.195C256.401,357.785 259.601,354.442 263.464,354.442C265.192,354.442 266.691,355.076 267.845,356.171L267.845,348.157L271.649,348.157L271.649,369.604ZM264.041,357.959C261.937,357.959 260.236,359.804 260.236,362.225C260.236,364.588 261.937,366.405 264.041,366.405C266.145,366.405 267.846,364.531 267.846,362.225C267.846,359.86 266.145,357.959 264.041,357.959" style="fill:rgb(16,154,214);fill-rule:nonzero;"/>
            </g>
            <g transform="matrix(2.66486,0,0,2.66486,-670.376,-515.724)">
                <path d="M279.082,353.145L275.277,353.145L275.277,349.6L279.082,349.6L279.082,353.145ZM279.082,369.604L275.277,369.604L275.277,354.76L279.082,354.76L279.082,369.604Z" style="fill:rgb(16,154,214);fill-rule:nonzero;"/>
            </g>
            <g transform="matrix(2.66486,0,0,2.66486,-670.376,-515.724)">
                <path d="M288.678,369.949C284.902,369.949 282.106,367.961 281.645,364.761L285.507,364.761C286.027,366.03 287.554,366.49 288.678,366.49C290.205,366.49 291.359,366.029 291.359,365.165C291.359,364.329 290.84,363.982 288.245,363.579C285.594,363.176 282.048,362.455 282.048,359.141C282.048,356.806 284.095,354.385 288.39,354.385C291.791,354.385 294.327,356.23 294.818,359.026L290.868,359.026C290.638,358.334 289.802,357.786 288.39,357.786C286.631,357.786 285.91,358.421 285.91,358.968C285.91,359.746 287.006,360.006 288.851,360.294C292.54,360.9 295.192,361.706 295.192,364.935C295.192,367.874 292.483,369.949 288.678,369.949" style="fill:rgb(16,154,214);fill-rule:nonzero;"/>
            </g>
            <g transform="matrix(2.66486,0,0,2.66486,-670.376,-515.724)">
                <path d="M312.193,369.604L308.563,369.604L308.563,368.019C307.409,369.229 305.824,369.921 304.008,369.921C300.146,369.921 296.946,366.577 296.946,362.195C296.946,357.785 300.146,354.442 304.008,354.442C305.824,354.442 307.409,355.133 308.563,356.344L308.563,354.759L312.193,354.759L312.193,369.604ZM304.584,357.959C302.48,357.959 300.779,359.804 300.779,362.225C300.779,364.588 302.48,366.405 304.584,366.405C306.688,366.405 308.389,364.531 308.389,362.225C308.39,359.86 306.688,357.959 304.584,357.959" style="fill:rgb(16,154,214);fill-rule:nonzero;"/>
            </g>
            <g transform="matrix(2.66486,0,0,2.66486,-670.376,-515.724)">
                <path d="M323.892,369.921C322.105,369.921 320.52,369.229 319.366,368.019L319.366,369.604L315.706,369.604L315.706,348.159L319.539,348.159L319.539,356.173C320.663,355.077 322.192,354.444 323.892,354.444C327.783,354.444 330.953,357.787 330.953,362.197C330.953,366.577 327.783,369.921 323.892,369.921M323.344,357.959C321.24,357.959 319.539,359.86 319.539,362.225C319.539,364.531 321.24,366.405 323.344,366.405C325.448,366.405 327.149,364.589 327.149,362.225C327.149,359.804 325.448,357.959 323.344,357.959" style="fill:rgb(16,154,214);fill-rule:nonzero;"/>
            </g>
            <g transform="matrix(2.66486,0,0,2.66486,-670.376,-515.724)">
                <path d="M337.435,353.145L333.63,353.145L333.63,349.6L337.435,349.6L337.435,353.145ZM337.435,369.604L333.63,369.604L333.63,354.76L337.435,354.76L337.435,369.604Z" style="fill:rgb(16,154,214);fill-rule:nonzero;"/>
            </g>
            <g transform="matrix(2.66486,0,0,2.66486,-670.376,-515.724)">
                <rect x="341.093" y="348.159" width="3.805" height="21.444" style="fill:rgb(16,154,214);"/>
            </g>
            <g transform="matrix(2.66486,0,0,2.66486,-670.376,-515.724)">
                <path d="M352.304,353.145L348.499,353.145L348.499,349.6L352.304,349.6L352.304,353.145ZM352.304,369.604L348.499,369.604L348.499,354.76L352.304,354.76L352.304,369.604Z" style="fill:rgb(16,154,214);fill-rule:nonzero;"/>
            </g>
            <g transform="matrix(2.66486,0,0,2.66486,-670.376,-515.724)">
                <path d="M368.732,363.406C368.732,367.153 366.195,369.949 362.217,369.949C358.24,369.949 355.674,367.153 355.674,363.406L355.674,350.983L359.479,350.983L359.479,354.759L368.587,354.759L368.587,358.332L359.479,358.332L359.479,363.607C359.479,364.961 360.315,366.345 362.217,366.345C364.091,366.345 364.927,364.961 364.927,363.607L364.927,362.194L368.732,362.194L368.732,363.406Z" style="fill:rgb(16,154,214);fill-rule:nonzero;"/>
            </g>
            <g transform="matrix(2.66486,0,0,2.66486,-670.376,-515.724)">
                <path d="M384.696,370.209C384.696,374.216 382.073,376.867 378.095,376.867C374.839,376.867 372.158,374.734 371.639,371.679L375.588,371.679C375.819,372.775 376.799,373.323 378.095,373.323C380.171,373.323 380.891,371.852 380.891,370.469L380.891,368.74C379.998,369.489 378.845,369.95 377.49,369.95C373.858,369.95 371.437,367.327 371.437,363.436L371.437,354.759L375.242,354.759L375.242,363.436C375.242,364.273 375.53,366.347 378.009,366.347C379.71,366.347 380.891,365.108 380.891,363.436L380.891,354.759L384.696,354.759L384.696,370.209Z" style="fill:rgb(16,154,214);fill-rule:nonzero;"/>
            </g>
            <g transform="matrix(2.66486,0,0,2.66486,-670.376,-515.724)">
                <path d="M411.293,369.604L407.663,369.604L407.663,368.019C406.509,369.229 404.924,369.921 403.108,369.921C399.246,369.921 396.046,366.577 396.046,362.195C396.046,357.785 399.246,354.442 403.108,354.442C404.923,354.442 406.508,355.133 407.663,356.344L407.663,354.759L411.293,354.759L411.293,369.604ZM403.685,357.959C401.581,357.959 399.879,359.804 399.879,362.225C399.879,364.588 401.58,366.405 403.685,366.405C405.789,366.405 407.49,364.531 407.49,362.225C407.489,359.86 405.788,357.959 403.685,357.959" style="fill:rgb(16,154,214);fill-rule:nonzero;"/>
            </g>
            <g transform="matrix(2.66486,0,0,2.66486,-670.376,-515.724)">
                <rect x="414.892" y="348.159" width="3.806" height="21.444" style="fill:rgb(16,154,214);"/>
            </g>
            <g transform="matrix(2.66486,0,0,2.66486,-670.376,-515.724)">
                <rect x="422.439" y="348.159" width="3.805" height="21.444" style="fill:rgb(16,154,214);"/>
            </g>
            <g transform="matrix(2.66486,0,0,2.66486,-670.376,-515.724)">
                <path d="M433.649,353.145L429.843,353.145L429.843,349.6L433.649,349.6L433.649,353.145ZM433.649,369.604L429.843,369.604L429.843,354.76L433.649,354.76L433.649,369.604Z" style="fill:rgb(16,154,214);fill-rule:nonzero;"/>
            </g>
            <g transform="matrix(2.66486,0,0,2.66486,-670.376,-515.724)">
                <path d="M451.604,369.604L447.974,369.604L447.974,368.019C446.82,369.229 445.235,369.921 443.419,369.921C439.557,369.921 436.357,366.577 436.357,362.195C436.357,357.785 439.557,354.442 443.419,354.442C445.234,354.442 446.819,355.133 447.974,356.344L447.974,354.759L451.604,354.759L451.604,369.604ZM443.995,357.959C441.891,357.959 440.189,359.804 440.189,362.225C440.189,364.588 441.89,366.405 443.995,366.405C446.099,366.405 447.8,364.531 447.8,362.225C447.8,359.86 446.099,357.959 443.995,357.959" style="fill:rgb(16,154,214);fill-rule:nonzero;"/>
            </g>
            <g transform="matrix(2.66486,0,0,2.66486,-670.376,-515.724)">
                <path d="M468.376,369.604L464.57,369.604L464.57,360.928C464.57,360.063 464.311,357.988 461.803,357.988C460.103,357.988 458.921,359.257 458.921,360.928L458.921,369.604L455.115,369.604L455.115,354.76L458.748,354.76L458.748,356.2C459.698,355.076 460.995,354.385 462.581,354.385C466.068,354.385 468.375,357.008 468.375,360.928L468.375,369.604L468.376,369.604Z" style="fill:rgb(16,154,214);fill-rule:nonzero;"/>
            </g>
            <g transform="matrix(2.66486,0,0,2.66486,-670.376,-515.724)">
                <path d="M477.97,369.949C473.501,369.949 470.303,366.49 470.303,362.195C470.303,357.901 473.501,354.384 477.97,354.384C481.543,354.384 484.253,356.402 485.117,359.744L481.055,359.744C480.534,358.736 479.354,357.871 477.97,357.871C475.866,357.871 474.164,359.831 474.164,362.224C474.164,364.559 475.865,366.49 477.97,366.49C479.382,366.49 480.592,365.626 481.082,364.588L485.147,364.588C484.281,367.961 481.573,369.949 477.97,369.949" style="fill:rgb(16,154,214);fill-rule:nonzero;"/>
            </g>
            <g transform="matrix(2.66486,0,0,2.66486,-670.376,-515.724)">
                <path d="M490.042,363.666C490.533,365.481 491.974,366.605 493.761,366.605C495.031,366.605 496.27,366.058 496.904,364.876L500.967,364.876C500.103,367.903 497.48,369.948 493.79,369.948C489.611,369.948 486.18,366.489 486.18,362.195C486.18,357.9 489.612,354.384 493.79,354.384C498.171,354.384 501.803,357.785 501.255,363.665L490.042,363.665L490.042,363.666ZM497.479,360.553C497.017,358.824 495.577,357.728 493.76,357.728C492.031,357.728 490.648,358.824 490.099,360.553L497.479,360.553Z" style="fill:rgb(16,154,214);fill-rule:nonzero;"/>
            </g>
            <g transform="matrix(2.66486,0,0,2.66486,-670.376,-515.724)">
                <path d="M520.965,369.921C519.178,369.921 517.592,369.229 516.439,368.019L516.439,369.604L512.778,369.604L512.778,348.159L516.612,348.159L516.612,356.173C517.736,355.077 519.264,354.444 520.966,354.444C524.856,354.444 528.027,357.787 528.027,362.197C528.025,366.577 524.854,369.921 520.965,369.921M520.417,357.959C518.313,357.959 516.611,359.86 516.611,362.225C516.611,364.531 518.312,366.405 520.417,366.405C522.521,366.405 524.222,364.589 524.222,362.225C524.222,359.804 522.521,357.959 520.417,357.959" style="fill:rgb(16,154,214);fill-rule:nonzero;"/>
            </g>
            <g transform="matrix(2.66486,0,0,2.66486,-670.376,-515.724)">
                <path d="M537.418,369.949C532.949,369.949 529.75,366.49 529.75,362.195C529.75,357.901 532.949,354.384 537.418,354.384C540.991,354.384 543.701,356.402 544.566,359.744L540.502,359.744C539.982,358.736 538.802,357.871 537.418,357.871C535.314,357.871 533.612,359.831 533.612,362.224C533.612,364.559 535.313,366.49 537.418,366.49C538.83,366.49 540.04,365.626 540.53,364.588L544.595,364.588C543.73,367.961 541.021,369.949 537.418,369.949" style="fill:rgb(16,154,214);fill-rule:nonzero;"/>
            </g>
            <g transform="matrix(2.66486,0,0,2.66486,-670.376,-515.724)">
                <path d="M383.895,270.246C377.717,264.978 369.716,261.788 360.979,261.788C351.051,261.788 342.072,265.905 335.641,272.514L302.828,309.677C299.272,313.867 293.976,316.538 288.062,316.538C277.379,316.538 268.687,307.847 268.687,297.163C268.687,286.479 277.379,277.788 288.062,277.788C294.113,277.788 299.52,280.579 303.075,284.937L308.535,291.086L323.437,274.139L323.437,240.538L307.437,240.538L307.437,267.588C301.867,263.926 295.211,261.788 288.062,261.788C268.556,261.788 252.687,277.657 252.687,297.163C252.687,316.669 268.556,332.538 288.062,332.538C298.146,332.538 307.248,328.29 313.695,321.498L346.462,284.375C350.015,280.347 355.198,277.788 360.979,277.788C371.663,277.788 380.354,286.479 380.354,297.163C380.354,307.847 371.663,316.538 360.979,316.538C354.922,316.538 349.523,313.73 345.972,309.361L340.507,303.226L329.849,315.346L334.307,320.363L334.307,320.361C340.795,327.815 350.344,332.538 360.979,332.538C368.128,332.538 374.784,330.399 380.354,326.738L380.354,330.81L396.354,330.81L396.354,270.245L383.895,270.245L383.895,270.246Z" style="fill:rgb(16,154,214);fill-rule:nonzero;"/>
            </g>
            <g transform="matrix(2.66486,0,0,2.66486,-670.376,-515.724)">
                <path d="M531.823,301.178C529.973,309.948 522.179,316.553 512.868,316.553C506.81,316.553 501.763,313.837 497.861,309.376L492.396,303.241L481.738,315.362L485.778,319.863C493.934,328.555 501.995,332.552 512.868,332.552C531.021,332.552 546.016,318.806 548.011,301.177L531.823,301.177L531.823,301.178Z" style="fill:rgb(144,199,231);fill-rule:nonzero;"/>
            </g>
            <g transform="matrix(2.66486,0,0,2.66486,-670.376,-515.724)">
                <path d="M512.868,261.803C502.94,261.803 492.731,266.546 487.529,272.529L454.708,309.685C450.716,314.118 445.866,316.553 439.951,316.553C429.267,316.553 420.576,307.862 420.576,297.178C420.576,286.494 429.267,277.803 439.951,277.803C446.001,277.803 450.947,280.425 454.964,284.952C454.969,284.947 457.78,288.127 460.414,291.111L470.593,279.536C464.474,268.948 453.034,261.803 439.951,261.803C432.802,261.803 426.146,263.941 420.576,267.603L420.576,240.553L404.576,240.553L404.576,297.178C404.576,316.684 420.445,332.553 439.951,332.553C450.033,332.553 459.136,328.307 465.586,321.517L498.351,284.391C501.904,280.362 507.086,277.803 512.869,277.803C522.181,277.803 529.975,284.408 531.824,293.178L548.012,293.178C546.017,275.549 531.021,261.803 512.868,261.803" style="fill:rgb(144,199,231);fill-rule:nonzero;"/>
            </g>
        </g>
    </g>
</svg>
